<svg width="58" height="58" viewBox="0 0 58 58" fill="none" xmlns="http://www.w3.org/2000/svg">
<rect width="58" height="58" rx="12.8889" fill="#F9ECFF"/>
<g clip-path="url(#clip0_459_2403)">
<path d="M33.5719 18C26.6511 18 21.1459 23.5838 21.1459 30.426C21.1459 37.3468 26.7298 42.8521 33.5719 42.8521C40.4141 42.8521 45.9979 37.2682 45.9979 30.426C45.9979 23.5838 40.4141 18 33.5719 18ZM33.5719 35.0661C31.0553 35.0661 28.9319 32.9427 28.9319 30.426C28.9319 27.9094 31.0553 25.7859 33.5719 25.7859C36.0886 25.7859 38.212 27.9094 38.212 30.426C38.1335 32.9427 36.0886 35.0661 33.5719 35.0661Z" fill="#8B3FFD"/>
<path d="M21.0667 21.6177V39.7062H16.6625L11 21.6177H21.0667Z" fill="#8B3FFD"/>
</g>
<defs>
<clipPath id="clip0_459_2403">
<rect width="35" height="24.8521" fill="white" transform="translate(11 18)"/>
</clipPath>
</defs>
</svg>
