<svg width="54" height="54" viewBox="0 0 54 54" fill="none" xmlns="http://www.w3.org/2000/svg">
<path d="M15.075 40.5H9.33755C6.12006 40.5 4.5 38.8799 4.5 35.6624V9.33755C4.5 6.12006 6.12006 4.5 9.33755 4.5H19.0125C22.23 4.5 23.8499 6.12006 23.8499 9.33755V13.5" stroke="white" stroke-width="3.375" stroke-miterlimit="10" stroke-linecap="round" stroke-linejoin="round"/>
<path d="M39.0827 18.945V44.055C39.0827 47.6775 37.2827 49.5 33.6602 49.5H20.5202C16.8977 49.5 15.0752 47.6775 15.0752 44.055V18.945C15.0752 15.3225 16.8977 13.5 20.5202 13.5H33.6602C37.2827 13.5 39.0827 15.3225 39.0827 18.945Z" stroke="white" stroke-width="3.375" stroke-miterlimit="10" stroke-linecap="round" stroke-linejoin="round"/>
<path d="M30.1499 13.5V9.33755C30.1499 6.12006 31.7698 4.5 34.9873 4.5H44.6623C47.8798 4.5 49.4998 6.12006 49.4998 9.33755V35.6624C49.4998 38.8799 47.8798 40.5 44.6623 40.5H39.0823" stroke="white" stroke-width="3.375" stroke-miterlimit="10" stroke-linecap="round" stroke-linejoin="round"/>
<path d="M22.5 24.75H31.5" stroke="white" stroke-width="3.375" stroke-miterlimit="10" stroke-linecap="round" stroke-linejoin="round"/>
<path d="M22.5 31.5H31.5" stroke="white" stroke-width="3.375" stroke-miterlimit="10" stroke-linecap="round" stroke-linejoin="round"/>
<path d="M27 49.5V42.75" stroke="white" stroke-width="3.375" stroke-miterlimit="10" stroke-linecap="round" stroke-linejoin="round"/>
</svg>
