<svg width="20" height="20" viewBox="0 0 20 20" fill="none" xmlns="http://www.w3.org/2000/svg">
<path d="M12.9252 2.35833H7.07516C5.00016 2.35833 4.54183 3.39166 4.27516 4.65833L3.3335 9.16666H16.6668L15.7252 4.65833C15.4585 3.39166 15.0002 2.35833 12.9252 2.35833Z" stroke="#292D32" stroke-width="1.5" stroke-linecap="round" stroke-linejoin="round"/>
<path d="M18.3248 16.5167C18.4164 17.4917 17.6331 18.3333 16.6331 18.3333H15.0664C14.1664 18.3333 14.0414 17.95 13.8831 17.475L13.7164 16.975C13.4831 16.2917 13.3331 15.8333 12.1331 15.8333H7.86645C6.66645 15.8333 6.49145 16.35 6.28311 16.975L6.11645 17.475C5.95811 17.95 5.83311 18.3333 4.93311 18.3333H3.36645C2.36645 18.3333 1.58311 17.4917 1.67478 16.5167L2.14145 11.4417C2.25811 10.1917 2.49978 9.16666 4.68311 9.16666H15.3164C17.4998 9.16666 17.7414 10.1917 17.8581 11.4417L18.3248 16.5167Z" stroke="#292D32" stroke-width="1.5" stroke-linecap="round" stroke-linejoin="round"/>
<path d="M3.33333 6.66666H2.5" stroke="#292D32" stroke-width="1.5" stroke-linecap="round" stroke-linejoin="round"/>
<path d="M17.4998 6.66666H16.6665" stroke="#292D32" stroke-width="1.5" stroke-linecap="round" stroke-linejoin="round"/>
<path d="M10 2.5V4.16667" stroke="#292D32" stroke-width="1.5" stroke-linecap="round" stroke-linejoin="round"/>
<path d="M8.75 4.16666H11.25" stroke="#292D32" stroke-width="1.5" stroke-linecap="round" stroke-linejoin="round"/>
<path d="M5 12.5H7.5" stroke="#292D32" stroke-width="1.5" stroke-linecap="round" stroke-linejoin="round"/>
<path d="M12.5 12.5H15" stroke="#292D32" stroke-width="1.5" stroke-linecap="round" stroke-linejoin="round"/>
</svg>
