<svg width="20" height="20" viewBox="0 0 20 20" fill="none" xmlns="http://www.w3.org/2000/svg">
<path d="M8.39173 2.35002L2.61673 6.97501C1.96673 7.49168 1.55006 8.58338 1.69172 9.40004L2.80006 16.0333C3.00006 17.2167 4.13339 18.175 5.33339 18.175H14.6667C15.8584 18.175 17.0001 17.2083 17.2001 16.0333L18.3084 9.40004C18.4417 8.58338 18.0251 7.49168 17.3834 6.97501L11.6084 2.35837C10.7167 1.6417 9.27506 1.64169 8.39173 2.35002Z" stroke="#292D32" stroke-width="1.5" stroke-linecap="round" stroke-linejoin="round"/>
<path d="M9.99984 12.9167C11.1504 12.9167 12.0832 11.9839 12.0832 10.8333C12.0832 9.68274 11.1504 8.75 9.99984 8.75C8.84924 8.75 7.9165 9.68274 7.9165 10.8333C7.9165 11.9839 8.84924 12.9167 9.99984 12.9167Z" stroke="#292D32" stroke-width="1.5" stroke-linecap="round" stroke-linejoin="round"/>
</svg>
