<svg width="24" height="23" viewBox="0 0 24 23" fill="none" xmlns="http://www.w3.org/2000/svg">
<g filter="url(#filter0_d_163_96)">
<path d="M10.2822 2.8728C10.8621 1.69767 12.5379 1.69767 13.1178 2.8728L14.7707 6.22186C15.001 6.68851 15.4462 7.01195 15.9611 7.08678L19.657 7.62383C20.9539 7.81227 21.4717 9.40595 20.5333 10.3207L17.8589 12.9275C17.4863 13.2908 17.3162 13.8141 17.4042 14.327L18.0355 18.008C18.2571 19.2996 16.9014 20.2845 15.7415 19.6747L12.4357 17.9368C11.9751 17.6946 11.4249 17.6946 10.9643 17.9368L7.65854 19.6747C6.49862 20.2845 5.14294 19.2996 5.36447 18.008L5.9958 14.327C6.08377 13.8141 5.91373 13.2908 5.54109 12.9275L2.86671 10.3207C1.92831 9.40595 2.44613 7.81227 3.74296 7.62383L7.43887 7.08678C7.95385 7.01195 8.39902 6.68851 8.62933 6.22186L10.2822 2.8728Z" fill="#FFE600"/>
</g>
<defs>
<filter id="filter0_d_163_96" x="0.387451" y="0.991455" width="22.625" height="21.8684" filterUnits="userSpaceOnUse" color-interpolation-filters="sRGB">
<feFlood flood-opacity="0" result="BackgroundImageFix"/>
<feColorMatrix in="SourceAlpha" type="matrix" values="0 0 0 0 0 0 0 0 0 0 0 0 0 0 0 0 0 0 127 0" result="hardAlpha"/>
<feOffset dy="1"/>
<feGaussianBlur stdDeviation="1"/>
<feComposite in2="hardAlpha" operator="out"/>
<feColorMatrix type="matrix" values="0 0 0 0 0 0 0 0 0 0 0 0 0 0 0 0 0 0 0.3 0"/>
<feBlend mode="normal" in2="BackgroundImageFix" result="effect1_dropShadow_163_96"/>
<feBlend mode="normal" in="SourceGraphic" in2="effect1_dropShadow_163_96" result="shape"/>
</filter>
</defs>
</svg>
