<svg width="35" height="35" viewBox="0 0 35 35" fill="none" xmlns="http://www.w3.org/2000/svg">
<path d="M13.1248 32.0833H21.8748C29.1665 32.0833 32.0832 29.1666 32.0832 21.875V13.125C32.0832 5.83329 29.1665 2.91663 21.8748 2.91663H13.1248C5.83317 2.91663 2.9165 5.83329 2.9165 13.125V21.875C2.9165 29.1666 5.83317 32.0833 13.1248 32.0833Z" stroke="white" stroke-width="2" stroke-linecap="round" stroke-linejoin="round"/>
<path d="M22.6042 26.9792C24.2083 26.9792 25.5208 25.6667 25.5208 24.0625V10.9375C25.5208 9.33337 24.2083 8.02087 22.6042 8.02087C21 8.02087 19.6875 9.33337 19.6875 10.9375V24.0625C19.6875 25.6667 20.9854 26.9792 22.6042 26.9792Z" stroke="white" stroke-width="2" stroke-linecap="round" stroke-linejoin="round"/>
<path d="M12.3957 26.9791C13.9998 26.9791 15.3123 25.6666 15.3123 24.0625V18.9583C15.3123 17.3541 13.9998 16.0416 12.3957 16.0416C10.7915 16.0416 9.479 17.3541 9.479 18.9583V24.0625C9.479 25.6666 10.7769 26.9791 12.3957 26.9791Z" stroke="white" stroke-width="2" stroke-linecap="round" stroke-linejoin="round"/>
</svg>
