<svg width="159" height="279" viewBox="0 0 159 279" fill="none" xmlns="http://www.w3.org/2000/svg">
<g opacity="0.05">
<path d="M19.1513 255.75C83.3544 255.75 135.401 203.703 135.401 139.5C135.401 75.2969 83.3544 23.25 19.1513 23.25C-45.0518 23.25 -97.0987 75.2969 -97.0987 139.5C-97.0987 203.703 -45.0518 255.75 19.1513 255.75Z" stroke="#0071FF" stroke-width="17.4375" stroke-linecap="round" stroke-linejoin="round"/>
<path d="M19.5 191.812C48.3914 191.812 71.8125 168.391 71.8125 139.5C71.8125 110.609 48.3914 87.1875 19.5 87.1875C-9.3914 87.1875 -32.8125 110.609 -32.8125 139.5C-32.8125 168.391 -9.3914 191.812 19.5 191.812Z" stroke="#0071FF" stroke-width="17.4375" stroke-linecap="round" stroke-linejoin="round"/>
<path d="M101.456 221.688L60.3037 180.652" stroke="#0071FF" stroke-width="17.4375" stroke-linecap="round" stroke-linejoin="round"/>
<path d="M101.456 57.3112L60.3037 98.3474" stroke="#0071FF" stroke-width="17.4375" stroke-linecap="round" stroke-linejoin="round"/>
</g>
</svg>
