<svg width="58" height="58" viewBox="0 0 58 58" fill="none" xmlns="http://www.w3.org/2000/svg">
<rect width="58" height="58" rx="12.8889" fill="#FFF4EC"/>
<path d="M38.3988 35.0348C38.4916 35.6597 38.2956 35.9184 38.0977 35.9184C37.8832 35.9184 37.611 35.6659 37.2934 35.1651C36.9779 34.6726 36.8644 34.1076 37.0191 33.82C37.1222 33.6317 37.3388 33.5489 37.611 33.6524C38.1369 33.8531 38.3431 34.6623 38.3988 35.0348ZM35.4848 36.3965C36.1159 36.9325 36.3076 37.5698 35.9736 38.0189C35.788 38.2652 35.4869 38.4018 35.126 38.4018C34.7713 38.4018 34.4104 38.2693 34.1608 38.05C33.5875 37.5471 33.4184 36.7296 33.7938 36.2661C33.9402 36.084 34.1773 35.9846 34.464 35.9846C34.8105 35.9846 35.1734 36.1295 35.4848 36.3965ZM34.4289 41.568C37.149 41.568 40.1001 42.5034 43.3667 45.409C43.6946 45.7007 44.1297 45.3386 43.8451 44.9764C40.6342 40.9079 37.6646 40.1339 34.7032 39.48C31.0819 38.6791 29.2177 36.6345 27.9184 34.387C27.6607 33.94 27.5452 34.0187 27.5204 34.594C27.4916 35.2955 27.5411 36.2268 27.6978 37.1394C27.5514 37.1456 27.4049 37.1435 27.2565 37.1435C22.074 37.1435 17.8733 32.9281 17.8733 27.7275C17.8733 22.527 22.074 18.3115 27.2565 18.3115C32.4389 18.3115 36.6397 22.527 36.6397 27.7275C36.6397 28.0979 36.6211 28.4642 36.5799 28.8222C35.8952 28.6981 34.5465 28.6836 33.5999 28.7664C33.2432 28.7974 33.2947 28.963 33.5628 29.0126C36.6644 29.5755 38.7947 31.5043 39.2835 35.0037C39.2938 35.0844 39.3989 35.1093 39.4402 35.0389C40.7167 32.9011 41.4488 30.4012 41.4488 27.7275C41.4488 19.8615 35.093 13.4834 27.2544 13.4834C19.4158 13.4834 13.0641 19.8615 13.0641 27.7296C13.0641 35.5956 19.4199 41.9737 27.2585 41.9737C29.3373 41.9737 31.3995 41.568 34.4289 41.568Z" fill="#FF8C00"/>
</svg>
