<svg width="29" height="29" viewBox="0 0 29 29" fill="none" xmlns="http://www.w3.org/2000/svg">
<path d="M12.1393 9.94609C12.7582 8.0891 15.2081 7.69154 16.3826 9.25749C17.0705 10.1748 17.0226 11.4484 16.2675 12.3114L15.1568 13.5807C14.1487 14.7328 13.5931 16.2116 13.5931 17.7424V18.125C13.5931 18.6255 13.9988 19.0312 14.4993 19.0312C14.9999 19.0312 15.4056 18.6255 15.4056 18.125V17.7424C15.4056 16.6506 15.8019 15.5959 16.5208 14.7743L17.6315 13.5049C18.9506 11.9974 19.0344 9.77244 17.8326 8.16999C15.7809 5.43438 11.5011 6.1289 10.4198 9.37292L10.0146 10.5884C9.85633 11.0632 10.1129 11.5765 10.5878 11.7347C11.0626 11.893 11.5758 11.6364 11.7341 11.1616L12.1393 9.94609Z" fill="#0085FF"/>
<path fill-rule="evenodd" clip-rule="evenodd" d="M14.4993 1.51041C7.3254 1.51041 1.50977 7.32604 1.50977 14.5C1.50977 21.6739 7.3254 27.4896 14.4993 27.4896C21.6733 27.4896 27.4889 21.6739 27.4889 14.5C27.4889 7.32604 21.6733 1.51041 14.4993 1.51041ZM3.32227 14.5C3.32227 8.32706 8.32642 3.32291 14.4993 3.32291C20.6723 3.32291 25.6764 8.32706 25.6764 14.5C25.6764 20.6729 20.6723 25.6771 14.4993 25.6771C8.32642 25.6771 3.32227 20.6729 3.32227 14.5Z" fill="#0085FF"/>
<path d="M15.7077 21.75C15.7077 22.4173 15.1667 22.9583 14.4993 22.9583C13.832 22.9583 13.291 22.4173 13.291 21.75C13.291 21.0826 13.832 20.5417 14.4993 20.5417C15.1667 20.5417 15.7077 21.0826 15.7077 21.75Z" fill="#0085FF"/>
</svg>
