<svg width="54" height="54" viewBox="0 0 54 54" fill="none" xmlns="http://www.w3.org/2000/svg">
<path d="M29.25 49.5H11.25C6.75 49.5 4.5 47.25 4.5 42.75V24.75C4.5 20.25 6.75 18 11.25 18H22.5V42.75C22.5 47.25 24.75 49.5 29.25 49.5Z" stroke="white" stroke-width="4" stroke-miterlimit="10" stroke-linecap="round" stroke-linejoin="round"/>
<path d="M22.7475 9C22.5675 9.675 22.5 10.4175 22.5 11.25V18H11.25V13.5C11.25 11.025 13.275 9 15.75 9H22.7475Z" stroke="white" stroke-width="4" stroke-miterlimit="10" stroke-linecap="round" stroke-linejoin="round"/>
<path d="M31.5 18V29.25" stroke="white" stroke-width="4" stroke-miterlimit="10" stroke-linecap="round" stroke-linejoin="round"/>
<path d="M40.5 18V29.25" stroke="white" stroke-width="4" stroke-miterlimit="10" stroke-linecap="round" stroke-linejoin="round"/>
<path d="M38.25 38.25H33.75C32.5125 38.25 31.5 39.2625 31.5 40.5V49.5H40.5V40.5C40.5 39.2625 39.4875 38.25 38.25 38.25Z" stroke="white" stroke-width="4" stroke-miterlimit="10" stroke-linecap="round" stroke-linejoin="round"/>
<path d="M13.5 29.25V38.25" stroke="white" stroke-width="4" stroke-miterlimit="10" stroke-linecap="round" stroke-linejoin="round"/>
<path d="M22.5 42.75V11.25C22.5 6.75 24.75 4.5 29.25 4.5H42.75C47.25 4.5 49.5 6.75 49.5 11.25V42.75C49.5 47.25 47.25 49.5 42.75 49.5H29.25C24.75 49.5 22.5 47.25 22.5 42.75Z" stroke="white" stroke-width="4" stroke-miterlimit="10" stroke-linecap="round" stroke-linejoin="round"/>
</svg>
