<svg width="1em" height="1em" viewBox="0 0 24 23" focusable="false" fill="currentColor" aria-hidden="true">
<path filter="url(#shadow)" d="M10.8823 2.87282C11.4622 1.69768 13.1379 1.69768 13.7179 2.87281L15.3708 6.22187C15.6011 6.68852 16.0463 7.01196 16.5612 7.08679L20.2571 7.62384C21.554 7.81228 22.0718 9.40596 21.1334 10.3207L18.459 12.9276C18.0864 13.2908 17.9163 13.8141 18.0043 14.327L18.6356 18.008C18.8572 19.2996 17.5015 20.2845 16.3416 19.6747L13.0358 17.9368C12.5752 17.6947 12.025 17.6947 11.5644 17.9368L8.25864 19.6747C7.09871 20.2845 5.74304 19.2996 5.96457 18.008L6.5959 14.327C6.68387 13.8141 6.51383 13.2908 6.14119 12.9276L3.46681 10.3207C2.52841 9.40597 3.04623 7.81228 4.34306 7.62384L8.03897 7.08679C8.55394 7.01196 8.99912 6.68852 9.22943 6.22187L10.8823 2.87282Z"/>
<filter id="shadow" x="0" y="0" width="200%" height="200%">
  <feDropShadow dx="0" dy="2" stdDeviation="1" flood-color="rgba(0, 0, 0, 0.3)" flood-opacity="0.3" />
</filter>
</svg>
