<svg width="54" height="54" viewBox="0 0 54 54" fill="none" xmlns="http://www.w3.org/2000/svg">
<path d="M38.1602 13.8828C42.6602 17.0103 45.7652 21.9828 46.3952 27.7203" stroke="white" stroke-width="4" stroke-linecap="round" stroke-linejoin="round"/>
<path d="M7.85303 27.8316C8.43803 22.1166 11.498 17.1441 15.953 13.9941" stroke="white" stroke-width="4" stroke-linecap="round" stroke-linejoin="round"/>
<path d="M18.4272 47.1152C21.0372 48.4427 24.0072 49.1852 27.1347 49.1852C30.1497 49.1852 32.9847 48.5102 35.5272 47.2727" stroke="white" stroke-width="4" stroke-linecap="round" stroke-linejoin="round"/>
<path d="M27.1344 17.3245C30.5889 17.3245 33.3894 14.524 33.3894 11.0695C33.3894 7.61491 30.5889 4.81445 27.1344 4.81445C23.6799 4.81445 20.8794 7.61491 20.8794 11.0695C20.8794 14.524 23.6799 17.3245 27.1344 17.3245Z" stroke="white" stroke-width="4" stroke-linecap="round" stroke-linejoin="round"/>
<path d="M10.8673 44.8205C14.3218 44.8205 17.1223 42.0201 17.1223 38.5655C17.1223 35.111 14.3218 32.3105 10.8673 32.3105C7.41276 32.3105 4.6123 35.111 4.6123 38.5655C4.6123 42.0201 7.41276 44.8205 10.8673 44.8205Z" stroke="white" stroke-width="4" stroke-linecap="round" stroke-linejoin="round"/>
<path d="M43.1329 44.8205C46.5875 44.8205 49.3879 42.0201 49.3879 38.5655C49.3879 35.111 46.5875 32.3105 43.1329 32.3105C39.6784 32.3105 36.8779 35.111 36.8779 38.5655C36.8779 42.0201 39.6784 44.8205 43.1329 44.8205Z" stroke="white" stroke-width="4" stroke-linecap="round" stroke-linejoin="round"/>
</svg>
