<svg width="20" height="20" viewBox="0 0 20 20" fill="none" xmlns="http://www.w3.org/2000/svg">
<path fill-rule="evenodd" clip-rule="evenodd" d="M0 1.11111C0 2.11667 0.318288 2.22222 3.34035 2.22222C6.36242 2.22222 6.6807 2.11667 6.6807 1.11111C6.6807 0.105556 6.36242 0 3.34035 0C0.318288 0 0 0.105556 0 1.11111ZM8.58948 1.94444C8.58948 3.38389 8.38428 3.88889 7.79925 3.88889C7.365 3.88889 6.30563 4.51389 5.44525 5.27778C3.51596 6.99056 1.90877 7.11722 1.90877 5.55556C1.90877 4.815 1.59048 4.44444 0.954386 4.44444C0.105937 4.44444 0 4.815 0 7.77778C0 10.7406 0.105937 11.1111 0.954386 11.1111C1.59048 11.1111 1.90877 10.7406 1.90877 10C1.90877 9.12056 2.22706 8.88889 3.4334 8.88889C4.40688 8.88889 5.40564 8.39 6.19445 7.51C6.87445 6.75167 8.12135 5.97 8.96455 5.77389C10.3852 5.44278 10.4982 5.52611 10.4982 6.9C10.4982 9.33944 12.4395 11.1111 15.1122 11.1111C17.2515 11.1111 17.3364 11.1661 16.5705 12.0572C15.9545 12.775 14.6699 13.0589 11.2579 13.2328C7.08059 13.4456 6.71268 13.3778 6.12716 12.2867C5.39658 10.9244 3.81755 10.7078 3.81755 11.9694C3.81755 12.4417 4.34484 13.4417 4.98905 14.1917C6.04461 15.4211 6.54995 15.555 10.1189 15.5522C12.2958 15.5506 14.876 15.2911 15.8528 14.9756C18.9045 13.9883 19.9095 10.9578 18.2617 7.71056C17.3698 5.95278 13.3819 3.33333 11.5977 3.33333C10.6944 3.33333 10.4982 3.03611 10.4982 1.66667C10.4982 0.370556 10.2864 0 9.54386 0C8.77129 0 8.58948 0.370556 8.58948 1.94444ZM12.407 1.11111C12.407 2.11667 12.7253 2.22222 15.7474 2.22222C18.7694 2.22222 19.0877 2.11667 19.0877 1.11111C19.0877 0.105556 18.7694 0 15.7474 0C12.7253 0 12.407 0.105556 12.407 1.11111ZM15.2702 7.35944L16.9404 8.60333L15.3585 8.78389C13.6845 8.975 12.407 8.14944 12.407 6.87667C12.407 5.77444 13.3581 5.935 15.2702 7.35944ZM17.8947 17.2222C17.7201 17.5511 14.7882 17.7778 10.7087 17.7778C4.13583 17.7778 3.81755 17.8289 3.81755 18.8889C3.81755 19.9506 4.13583 20 10.9754 20C17.4972 20 18.2183 19.9011 19.0877 18.8889C20.2941 17.4844 20.3046 16.6667 19.1159 16.6667C18.6062 16.6667 18.057 16.9167 17.8947 17.2222Z" fill="black"/>
</svg>
